<?xml version="1.0" encoding="UTF-8" standalone="no"?>
<svg
   xmlns:dc="http://purl.org/dc/elements/1.1/"
   xmlns:cc="http://creativecommons.org/ns#"
   xmlns:rdf="http://www.w3.org/1999/02/22-rdf-syntax-ns#"
   xmlns:svg="http://www.w3.org/2000/svg"
   xmlns="http://www.w3.org/2000/svg"
   xmlns:sodipodi="http://sodipodi.sourceforge.net/DTD/sodipodi-0.dtd"
   xmlns:inkscape="http://www.inkscape.org/namespaces/inkscape"
   inkscape:export-ydpi="29.411764"
   inkscape:export-xdpi="29.411764"
   inkscape:export-filename="Z:\Data\Creatives\VisID\Logo\SofteemLogo250px.png"
   inkscape:version="1.0 (4035a4fb49, 2020-05-01)"
   sodipodi:docname="Softeem Logo.svg"
   viewBox="0 0 816 964.336"
   height="964.336"
   width="816"
   xml:space="preserve"
   id="svg4504"
   version="1.1"><metadata
     id="metadata4510"><rdf:RDF><cc:Work
         rdf:about=""><dc:format>image/svg+xml</dc:format><dc:type
           rdf:resource="http://purl.org/dc/dcmitype/StillImage" /><dc:title /></cc:Work></rdf:RDF></metadata><defs
     id="defs4508"><clipPath
       id="clipPath4522"
       clipPathUnits="userSpaceOnUse"><path
         inkscape:connector-curvature="0"
         id="path4520"
         d="M 0,723.252 H 612 V 0 H 0 Z" /></clipPath><clipPath
       id="clipPath4540"
       clipPathUnits="userSpaceOnUse"><path
         inkscape:connector-curvature="0"
         id="path4538"
         d="M 0,723.252 H 612 V 0 H 0 Z" /></clipPath></defs><sodipodi:namedview
     inkscape:document-rotation="0"
     inkscape:current-layer="g4512"
     inkscape:window-maximized="1"
     inkscape:window-y="-9"
     inkscape:window-x="-9"
     inkscape:cy="482.168"
     inkscape:cx="408"
     inkscape:zoom="0.62913509"
     showgrid="false"
     id="namedview4506"
     inkscape:window-height="1013"
     inkscape:window-width="1920"
     inkscape:pageshadow="2"
     inkscape:pageopacity="0"
     guidetolerance="10"
     gridtolerance="10"
     objecttolerance="10"
     borderopacity="1"
     bordercolor="#666666"
     pagecolor="#ffffff" /><g
     transform="matrix(1.3333333,0,0,-1.3333333,0,964.336)"
     inkscape:label="Softeem Logo"
     inkscape:groupmode="layer"
     id="g4512"><path
   inkscape:connector-curvature="0"
   id="path4514"
   style="fill:#ffffff;fill-opacity:1;fill-rule:nonzero;stroke:none"
   d="M 0,0 H 612 V 722.752 H 0 Z" /><g
   id="g4516"><g
     clip-path="url(#clipPath4522)"
     id="g4518"><g
       transform="translate(132.6387,232.7051)"
       id="g4524"><path
         inkscape:connector-curvature="0"
         id="path4526"
         style="fill:#231f20;fill-opacity:1;fill-rule:evenodd;stroke:none"
         d="m 0,0 v -8.877 h -0.032 c -5.596,0 -9.745,-3.634 -12.35,-10.871 -2.638,-7.269 -3.956,-18.718 -3.956,-34.349 0,-15.632 1.318,-27.081 3.956,-34.414 2.605,-7.302 6.754,-10.968 12.35,-10.968 H 0 v -8.812 h -0.032 c -9.005,0 -15.599,4.374 -19.844,13.154 -4.246,8.748 -6.368,22.385 -6.368,40.911 0,18.526 2.122,32.163 6.368,41.007 C -15.631,-4.406 -9.037,0 -0.032,0 Z m -110.188,-90.698 c 2.573,-2.83 5.242,-4.986 8.04,-6.433 2.798,-1.479 5.724,-2.187 8.748,-2.187 4.921,0 8.941,1.769 12.126,5.372 3.151,3.537 4.727,8.169 4.727,13.83 0,2.38 -0.321,4.598 -0.997,6.625 -0.644,2.026 -1.608,3.924 -2.991,5.66 -2.058,2.638 -5.725,5.886 -10.967,9.746 -2.123,1.543 -3.699,2.733 -4.728,3.569 -5.339,4.342 -9.199,8.62 -11.546,12.833 -2.38,4.214 -3.571,8.942 -3.571,14.152 0,7.88 2.348,14.473 7.012,19.683 4.695,5.243 10.549,7.848 17.593,7.848 2.798,0 5.564,-0.482 8.265,-1.447 2.735,-0.965 5.404,-2.38 8.009,-4.311 v -12.446 c -2.123,2.991 -4.535,5.243 -7.237,6.85 -2.701,1.544 -5.564,2.317 -8.587,2.317 -4.6,0 -8.298,-1.609 -11.128,-4.889 -2.862,-3.249 -4.278,-7.494 -4.278,-12.736 0,-4.471 0.965,-8.267 2.894,-11.483 1.899,-3.183 6.465,-7.494 13.67,-12.833 7.397,-5.435 12.318,-10.196 14.666,-14.215 2.348,-4.021 3.537,-8.813 3.537,-14.377 0,-8.395 -2.411,-15.245 -7.236,-20.617 -4.792,-5.403 -10.936,-8.104 -18.364,-8.104 -3.217,0 -6.273,0.418 -9.167,1.254 -2.895,0.805 -5.725,2.058 -8.49,3.764 z m 510.419,89.315 h 8.556 l 10.709,-68.41 c 0.162,-1.254 0.837,-6.689 1.931,-16.274 0.385,-3.859 0.74,-6.914 1.029,-9.166 0.321,3.859 0.772,7.879 1.351,12.158 0.579,4.245 1.254,8.651 2.026,13.282 l 11.418,68.41 h 8.266 l 12.865,-105.59 h -8.813 l -7.173,69.149 c 0,0.291 -0.033,0.805 -0.127,1.512 -0.741,7.848 -1.288,14.988 -1.738,21.421 -0.579,-6.497 -1.126,-11.771 -1.576,-15.824 -0.515,-4.053 -0.997,-7.623 -1.545,-10.71 l -10.998,-65.548 h -8.299 l -10.517,68.153 c -0.032,0.322 -0.128,0.901 -0.288,1.64 -1.319,8.555 -2.252,15.953 -2.798,22.289 -0.323,-3.249 -0.612,-7.365 -1.03,-12.382 -0.546,-7.366 -0.932,-11.515 -1.093,-12.512 l -7.623,-67.188 h -8.781 z m -88.254,0 h 33.192 v -8.877 h -23.511 v -38.048 h 23.221 v -8.62 h -23.221 v -41.135 h 24.251 v -8.91 h -33.932 z m -81.853,0 h 33.224 v -8.877 h -23.511 v -38.048 h 23.189 v -8.62 h -23.189 v -41.135 h 24.219 v -8.91 h -33.932 z m -68.764,-8.619 h -16.467 v 8.619 h 42.519 v -8.619 h -16.403 v -96.971 h -9.649 z m -88.319,8.619 h 33.192 V -10.26 H 82.755 v -37.469 h 23.189 v -8.459 H 82.755 v -50.785 H 73.041 Z M 0,-108.291 v 8.812 c 5.596,0.033 9.746,3.635 12.351,10.839 2.638,7.204 3.956,18.719 3.956,34.543 0,15.759 -1.318,27.242 -3.956,34.446 C 9.746,-12.479 5.596,-8.877 0,-8.877 V 0 c 8.941,0 15.535,-4.406 19.812,-13.219 4.278,-8.844 6.401,-22.481 6.401,-41.007 0,-18.526 -2.123,-32.163 -6.401,-40.911 C 15.535,-103.885 8.941,-108.259 0,-108.291" /></g></g></g><text
   y="0"
   id="text4530"
   style="font-variant:normal;font-weight:normal;font-stretch:normal;font-size:60px;font-family:'Myriad Pro';-inkscape-font-specification:MyriadWebPro;writing-mode:lr-tb;fill:#231f20;fill-opacity:1;fill-rule:nonzero;stroke:none"
   transform="matrix(1,0,0,-1,53.437,45)"><tspan
     id="tspan4528"
     sodipodi:role="line"
     y="0"
     x="0 30.059999 62.580002 95.639999 119.4 133.44 166.74001 196.8 220.56 244.32001 257.04001 286.98001 319.92001 334.07999 367.14001 387 401.04001 433.98001 467.28">eBusiness Solutions</tspan></text>
<path
   inkscape:connector-curvature="0"
   id="path4532"
   style="fill:#265cb3;fill-opacity:1;fill-rule:nonzero;stroke:none"
   d="M 0.123,252.745 H 612 V 723.252 H 0.123 Z" /><g
   id="g4534"><g
     clip-path="url(#clipPath4540)"
     id="g4536"><g
       transform="translate(115.792,366.4404)"
       id="g4542"><path
         inkscape:connector-curvature="0"
         id="path4544"
         style="fill:#ffffff;fill-opacity:1;fill-rule:evenodd;stroke:none"
         d="m 0,0 c 0,-5.531 -2.38,-8.33 -7.236,-8.33 -4.793,0 -7.205,2.799 -7.205,8.33 v 55.803 h -3.538 v -134.44 c 0,-5.532 -2.992,-8.299 -8.909,-8.299 -5.95,0 -8.877,2.767 -8.877,8.299 V 0.934 h -4.664 v -79.571 c 0,-5.532 -2.926,-8.299 -8.844,-8.299 -5.951,0 -8.909,2.767 -8.909,8.299 V 55.803 H -61.72 V 0 c 0,-5.531 -2.444,-8.33 -7.237,-8.33 -4.856,0 -7.236,2.799 -7.236,8.33 v 63.972 c 0,10.421 6.561,15.598 19.78,15.598 h 36.794 C -6.529,79.57 0,74.393 0,63.972 Z m -22.514,99.254 c 0,-4.631 -1.544,-8.78 -4.664,-12.446 -3.087,-3.7 -6.754,-5.533 -11.064,-5.533 -4.278,0 -7.976,1.833 -11.031,5.533 -3.152,3.666 -4.664,7.815 -4.664,12.446 0,4.6 1.512,8.491 4.567,11.707 3.056,3.249 6.755,4.889 11.128,4.889 4.31,0 7.977,-1.64 11.064,-4.889 3.12,-3.216 4.664,-7.107 4.664,-11.707" /></g><g
       transform="translate(115.792,366.4404)"
       id="g4546"><path
         inkscape:connector-curvature="0"
         id="path4548"
         style="fill:#ffffff;fill-opacity:1;fill-rule:evenodd;stroke:none"
         d="m 0,0 c 0,-5.531 2.38,-8.33 7.236,-8.33 4.793,0 7.237,2.799 7.237,8.33 v 55.803 h 3.538 v -134.44 c 0,-5.532 2.991,-8.299 8.909,-8.299 5.918,0 8.845,2.767 8.845,8.299 V 0.934 h 4.663 v -79.571 c 0,-5.532 2.959,-8.299 8.877,-8.299 5.918,0 8.909,2.767 8.909,8.299 v 134.44 h 3.538 V 0 c 0,-5.531 2.412,-8.33 7.237,-8.33 4.824,0 7.204,2.799 7.204,8.33 v 63.972 c 0,10.421 -6.561,15.598 -19.78,15.598 H 19.651 C 6.529,79.57 0,74.393 0,63.972 Z m 22.514,99.254 c 0,-4.631 1.544,-8.78 4.663,-12.446 3.088,-3.7 6.787,-5.533 11.064,-5.533 4.277,0 7.976,1.833 11.064,5.533 3.12,3.666 4.664,7.815 4.664,12.446 0,4.6 -1.544,8.491 -4.568,11.707 -3.087,3.249 -6.786,4.889 -11.16,4.889 -4.277,0 -7.976,-1.64 -11.064,-4.889 -3.119,-3.216 -4.663,-7.107 -4.663,-11.707" /></g><g
       transform="translate(268.1782,366.4404)"
       id="g4550"><path
         inkscape:connector-curvature="0"
         id="path4552"
         style="fill:#ffffff;fill-opacity:1;fill-rule:evenodd;stroke:none"
         d="m 0,0 c 0,-5.531 -2.38,-8.33 -7.205,-8.33 -4.824,0 -7.236,2.799 -7.236,8.33 v 55.803 h -3.538 v -134.44 c 0,-5.532 -2.991,-8.299 -8.909,-8.299 -5.918,0 -8.877,2.767 -8.877,8.299 V 0.934 h -4.663 v -79.571 c 0,-5.532 -2.927,-8.299 -8.845,-8.299 -5.918,0 -8.909,2.767 -8.909,8.299 V 55.803 H -61.72 V 0 c 0,-5.531 -2.445,-8.33 -7.237,-8.33 -4.856,0 -7.236,2.799 -7.236,8.33 v 63.972 c 0,10.421 6.593,15.598 19.78,15.598 h 36.794 C -6.529,79.57 0,74.393 0,63.972 Z m -22.514,99.254 c 0,-4.631 -1.544,-8.78 -4.663,-12.446 -3.088,-3.7 -6.754,-5.533 -11.064,-5.533 -4.278,0 -7.945,1.833 -11.032,5.533 -3.12,3.666 -4.664,7.815 -4.664,12.446 0,4.6 1.544,8.491 4.567,11.707 3.088,3.249 6.755,4.889 11.129,4.889 4.31,0 7.976,-1.64 11.064,-4.889 3.119,-3.216 4.663,-7.107 4.663,-11.707" /></g><g
       transform="translate(420.5967,366.4404)"
       id="g4554"><path
         inkscape:connector-curvature="0"
         id="path4556"
         style="fill:#ffffff;fill-opacity:1;fill-rule:evenodd;stroke:none"
         d="m 0,0 c 0,-5.531 -2.38,-8.33 -7.236,-8.33 -4.792,0 -7.237,2.799 -7.237,8.33 v 55.803 h -3.538 v -134.44 c 0,-5.532 -2.991,-8.299 -8.909,-8.299 -5.918,0 -8.845,2.767 -8.845,8.299 V 0.934 h -4.664 v -79.571 c 0,-5.532 -2.959,-8.299 -8.877,-8.299 -5.917,0 -8.908,2.767 -8.908,8.299 v 134.44 h -3.538 V 0 c 0,-5.531 -2.412,-8.33 -7.236,-8.33 -4.857,0 -7.238,2.799 -7.238,8.33 v 63.972 c 0,10.421 6.594,15.598 19.78,15.598 h 36.795 C -6.528,79.57 0,74.393 0,63.972 Z m -22.546,99.254 c 0,-4.631 -1.544,-8.78 -4.664,-12.446 -3.055,-3.7 -6.754,-5.533 -11.031,-5.533 -4.31,0 -7.977,1.833 -11.065,5.533 -3.119,3.666 -4.663,7.815 -4.663,12.446 0,4.6 1.544,8.491 4.568,11.707 3.088,3.249 6.754,4.889 11.16,4.889 4.277,0 7.976,-1.64 11.031,-4.889 3.12,-3.216 4.664,-7.107 4.664,-11.707" /></g><g
       transform="translate(420.5967,366.4404)"
       id="g4558"><path
         inkscape:connector-curvature="0"
         id="path4560"
         style="fill:#ffffff;fill-opacity:1;fill-rule:evenodd;stroke:none"
         d="m 0,0 c 0,-5.531 2.38,-8.33 7.204,-8.33 4.825,0 7.237,2.799 7.237,8.33 v 55.803 h 3.538 v -134.44 c 0,-5.532 2.991,-8.299 8.909,-8.299 5.918,0 8.877,2.767 8.877,8.299 V 0.934 h 4.664 v -79.571 c 0,-5.532 2.925,-8.299 8.844,-8.299 5.918,0 8.91,2.767 8.91,8.299 V 55.803 H 61.72 V 0 c 0,-5.531 2.445,-8.33 7.237,-8.33 4.856,0 7.236,2.799 7.236,8.33 v 63.972 c 0,10.421 -6.592,15.598 -19.78,15.598 H 19.619 C 6.529,79.57 0,74.393 0,63.972 Z m 22.514,99.254 c 0,-4.631 1.544,-8.78 4.664,-12.446 3.087,-3.7 6.754,-5.533 11.031,-5.533 4.31,0 7.977,1.833 11.064,5.533 3.121,3.666 4.664,7.815 4.664,12.446 0,4.6 -1.543,8.491 -4.567,11.707 -3.088,3.249 -6.755,4.889 -11.161,4.889 -4.277,0 -7.944,-1.64 -11.031,-4.889 -3.12,-3.216 -4.664,-7.107 -4.664,-11.707" /></g><g
       transform="translate(572.9824,366.4404)"
       id="g4562"><path
         inkscape:connector-curvature="0"
         id="path4564"
         style="fill:#ffffff;fill-opacity:1;fill-rule:evenodd;stroke:none"
         d="m 0,0 c 0,-5.531 -2.379,-8.33 -7.235,-8.33 -4.793,0 -7.238,2.799 -7.238,8.33 v 55.803 h -3.537 v -134.44 c 0,-5.532 -2.991,-8.299 -8.909,-8.299 -5.918,0 -8.845,2.767 -8.845,8.299 V 0.934 h -4.664 v -79.571 c 0,-5.532 -2.959,-8.299 -8.877,-8.299 -5.918,0 -8.908,2.767 -8.908,8.299 v 134.44 h -3.539 V 0 c 0,-5.531 -2.412,-8.33 -7.236,-8.33 -4.825,0 -7.204,2.799 -7.204,8.33 v 63.972 c 0,10.421 6.561,15.598 19.748,15.598 H -19.65 C -6.528,79.57 0,74.393 0,63.972 Z m -22.513,99.254 c 0,-4.631 -1.544,-8.78 -4.664,-12.446 -3.087,-3.7 -6.786,-5.533 -11.063,-5.533 -4.278,0 -7.977,1.833 -11.065,5.533 -3.119,3.666 -4.664,7.815 -4.664,12.446 0,4.6 1.545,8.491 4.569,11.707 3.086,3.249 6.785,4.889 11.16,4.889 4.277,0 7.976,-1.64 11.063,-4.889 3.12,-3.216 4.664,-7.107 4.664,-11.707" /></g><g
       transform="translate(244.3779,348.8799)"
       id="g4566"><path
         inkscape:connector-curvature="0"
         id="path4568"
         style="fill:#cceafa;fill-opacity:1;fill-rule:evenodd;stroke:none"
         d="m 0,0 39.496,5.95 c 0.739,-13.604 3.345,-23.639 7.783,-30.104 4.407,-6.529 11,-9.745 19.652,-9.745 7.525,0 13.604,2.412 18.365,7.14 4.663,4.76 7.011,11.031 7.011,18.782 0,13.992 -11.128,32.035 -33.353,54.163 l -3.891,3.859 c -21.71,21.742 -35.702,38.467 -41.909,50.173 -6.11,11.611 -9.231,24.026 -9.231,37.116 0,18.912 6.208,34.864 18.623,47.762 12.447,12.897 27.563,19.362 45.543,19.362 17.367,0 31.615,-5.95 42.743,-17.915 11.129,-11.868 17.529,-28.014 19.105,-48.437 l -40.428,-5.693 c -0.74,11.933 -2.83,20.552 -6.369,25.73 -3.537,5.178 -8.941,7.783 -16.209,7.783 -6.691,0 -11.997,-2.283 -16.05,-6.753 -3.988,-4.504 -6.014,-10.582 -6.014,-18.108 0,-15.567 12.961,-35.861 38.884,-60.98 l 2.412,-2.412 c 19.041,-18.526 31.52,-33.642 37.438,-45.414 5.95,-11.707 8.941,-24.926 8.941,-39.463 0,-19.555 -6.078,-35.541 -18.172,-48.148 -12.125,-12.511 -27.434,-18.783 -45.992,-18.783 -20.488,0 -36.73,6.593 -48.823,19.684 C 7.526,-41.362 1.029,-23.222 0,0" /></g></g></g></g></svg>
